<?xml version="1.0" standalone="no"?>
<!DOCTYPE svg PUBLIC "-//W3C//DTD SVG 20010904//EN"
 "http://www.w3.org/TR/2001/REC-SVG-20010904/DTD/svg10.dtd">
<svg version="1.0" xmlns="http://www.w3.org/2000/svg"
 width="543.000000pt" height="377.000000pt" viewBox="0 0 543.000000 377.000000"
 preserveAspectRatio="xMidYMid meet">

<g transform="translate(0.000000,377.000000) scale(0.100000,-0.100000)"
fill="#000000" stroke="none">
<path d="M530 3340 c-70 -8 -74 -13 -67 -88 5 -46 16 -81 40 -126 36 -64 97
-235 117 -324 8 -33 25 -68 47 -94 38 -46 66 -97 158 -293 81 -174 202 -382
346 -598 66 -97 151 -235 190 -305 40 -70 92 -154 118 -187 255 -334 314 -418
420 -602 51 -89 73 -104 98 -67 10 15 36 47 59 73 62 71 74 92 74 136 0 31 -8
50 -35 84 -21 26 -35 55 -35 71 0 15 -20 57 -46 96 -25 38 -60 101 -78 139
-34 74 -196 319 -329 498 -44 59 -78 110 -75 112 5 6 98 -67 223 -175 228
-197 252 -213 745 -515 123 -76 601 -275 837 -349 93 -29 255 -67 383 -91 47
-8 110 -22 140 -30 30 -9 100 -20 155 -25 55 -6 138 -17 185 -25 295 -53 661
-30 819 50 64 32 81 50 81 85 0 40 -21 49 -142 57 -56 3 -97 8 -90 11 6 2 12
8 12 13 0 5 -77 9 -177 10 -98 0 -209 4 -248 9 -129 17 -260 30 -305 32 -25 0
-62 7 -82 14 -20 7 -74 18 -120 25 -109 15 -132 28 -51 29 35 0 95 -9 135 -20
40 -11 116 -24 168 -30 180 -21 583 -31 598 -15 18 17 -39 25 -188 25 -91 0
-194 5 -230 10 -128 20 -305 62 -339 81 -20 10 -45 19 -56 19 -40 0 -499 129
-514 145 -17 17 -7 19 35 6 16 -5 49 -12 74 -15 42 -5 39 -2 -60 49 -58 30
-97 54 -87 54 29 1 19 18 -14 25 -43 8 -51 8 -44 -4 7 -11 -50 -3 -75 11 -12
7 -10 8 8 9 12 0 22 3 22 8 0 4 -49 38 -108 77 -59 38 -136 97 -172 131 -36
33 -94 82 -128 109 -42 31 -60 50 -52 55 8 5 1 11 -19 18 -18 7 -29 7 -26 2
15 -24 -14 -7 -34 20 -12 17 -59 55 -105 84 -84 54 -395 284 -500 370 -31 25
-79 57 -106 71 -28 14 -50 30 -50 35 0 13 -2 13 120 -10 79 -15 389 -60 415
-60 17 0 35 38 35 73 0 66 -35 116 -105 154 -60 33 -313 119 -379 130 -20 3
-36 10 -36 14 0 5 10 7 23 4 33 -7 139 -25 149 -25 4 0 8 4 8 10 0 18 -55 37
-160 54 -131 22 -154 31 -147 55 4 15 -13 26 -92 62 -57 26 -114 60 -141 85
-25 23 -63 49 -85 58 -22 10 -54 30 -70 46 -17 16 -55 40 -85 52 -80 34 -180
89 -180 101 0 5 13 7 31 3 61 -12 23 16 -66 50 -273 101 -356 127 -420 135
-38 4 -77 10 -85 14 -27 10 -183 20 -230 15z m3056 -2280 c24 0 62 -25 52 -35
-9 -9 -118 26 -118 38 0 5 10 7 23 3 12 -3 31 -6 43 -6z m829 -220 c3 -5 1
-10 -4 -10 -6 0 -11 5 -11 10 0 6 2 10 4 10 3 0 8 -4 11 -10z"/>
<path d="M3658 1173 c7 -3 16 -2 19 1 4 3 -2 6 -13 5 -11 0 -14 -3 -6 -6z"/>
</g>
</svg>
