<?xml version="1.0" standalone="no"?>
<!DOCTYPE svg PUBLIC "-//W3C//DTD SVG 20010904//EN"
 "http://www.w3.org/TR/2001/REC-SVG-20010904/DTD/svg10.dtd">
<svg version="1.0" xmlns="http://www.w3.org/2000/svg"
 width="266.000000pt" height="220.000000pt" viewBox="0 0 266.000000 220.000000"
 preserveAspectRatio="xMidYMid meet">

<g transform="translate(0.000000,220.000000) scale(0.100000,-0.100000)"
fill="#000000" stroke="none">
<path d="M0 1100 l0 -1100 1330 0 1330 0 0 1100 0 1100 -1330 0 -1330 0 0
-1100z m2538 435 c24 -28 29 -82 11 -117 -14 -26 -67 -48 -102 -41 -35 7 -77
57 -77 91 2 90 110 133 168 67z m-2062 -209 c102 -48 134 -123 134 -318 l0
-128 -54 0 -55 0 -3 146 -3 146 -37 34 c-32 29 -45 34 -86 34 -99 0 -124 -45
-130 -228 l-4 -133 -52 3 -51 3 0 135 c1 155 11 194 64 253 71 79 178 99 277
53z m304 -121 c7 -184 25 -215 126 -215 41 0 51 5 85 39 l39 39 0 141 0 141
56 0 56 0 -4 -153 c-3 -151 -4 -155 -33 -203 -46 -73 -101 -107 -181 -112 -86
-6 -141 16 -194 75 -52 60 -60 92 -60 256 l0 138 53 -3 52 -3 5 -140z m706
126 c23 -10 45 -24 48 -30 5 -7 19 -2 43 16 32 25 45 28 109 28 64 0 77 -3
115 -30 74 -52 84 -85 84 -270 l0 -160 -52 -3 -52 -3 -3 156 -3 157 -28 24
c-38 33 -86 32 -121 -2 -26 -27 -26 -28 -26 -180 l0 -154 -54 0 -55 0 -3 154
c-3 148 -4 156 -27 180 -34 36 -89 36 -125 0 -26 -27 -26 -28 -26 -180 l0
-154 -55 0 -55 0 0 158 c0 131 3 164 19 197 46 101 164 143 267 96z m800 -5
c56 -26 98 -74 120 -133 8 -25 13 -87 14 -175 l0 -138 -55 0 c-42 0 -55 3 -55
15 0 18 1 18 -43 0 -20 -8 -59 -15 -87 -15 -131 0 -232 103 -232 235 0 70 22
123 74 172 70 67 171 82 264 39z"/>
<path d="M2113 1220 c-40 -24 -56 -54 -56 -105 0 -74 54 -125 133 -125 32 0
48 7 78 34 34 32 37 38 37 91 0 53 -3 59 -37 91 -31 28 -46 34 -80 34 -25 0
-57 -8 -75 -20z"/>
</g>
</svg>
